Coordinates
version=1
nRows=4
nColumns=124
inDegrees=yes

Units are S.I. units (second, meters, Newtons, ...)
If the header above contains a line with 'inDegrees', this indicates whether rotational values are in degrees (yes) or radians (no).

endheader 
time	pelvis_tilt	pelvis_list	pelvis_rotation	pelvis_tx	pelvis_ty	pelvis_tz	hip_flexion_l	hip_adduction_l	hip_rotation_l	hip_flexion_r	hip_adduction_r	hip_rotation_r	knee_angle_l	knee_angle_r	ankle_angle_l	ankle_angle_r	subtalar_angle_l	subtalar_angle_r	mtp_angle_l	mtp_angle_r	lumbar_extension	lumbar_bending	lumbar_rotation	arm_flex_l	arm_add_l	arm_rot_l	arm_flex_r	arm_add_r	arm_rot_r	elbow_flex_l	elbow_flex_r	glut_med1_l/activation	glut_med2_l/activation	glut_med3_l/activation	glut_min1_l/activation	glut_min2_l/activation	glut_min3_l/activation	semimem_l/activation	semiten_l/activation	bifemlh_l/activation	bifemsh_l/activation	sar_l/activation	add_long_l/activation	add_brev_l/activation	add_mag1_l/activation	add_mag2_l/activation	add_mag3_l/activation	tfl_l/activation	pect_l/activation	grac_l/activation	glut_max1_l/activation	glut_max2_l/activation	glut_max3_l/activation	iliacus_l/activation	psoas_l/activation	quad_fem_l/activation	gem_l/activation	peri_l/activation	rect_fem_l/activation	vas_med_l/activation	vas_int_l/activation	vas_lat_l/activation	med_gas_l/activation	lat_gas_l/activation	soleus_l/activation	tib_post_l/activation	flex_dig_l/activation	flex_hal_l/activation	tib_ant_l/activation	per_brev_l/activation	per_long_l/activation	per_tert_l/activation	ext_dig_l/activation	ext_hal_l/activation	ercspn_l/activation	intobl_l/activation	extobl_l/activation	glut_med1_r/activation	glut_med2_r/activation	glut_med3_r/activation	glut_min1_r/activation	glut_min2_r/activation	glut_min3_r/activation	semimem_r/activation	semiten_r/activation	bifemlh_r/activation	bifemsh_r/activation	sar_r/activation	add_long_r/activation	add_brev_r/activation	add_mag1_r/activation	add_mag2_r/activation	add_mag3_r/activation	tfl_r/activation	pect_r/activation	grac_r/activation	glut_max1_r/activation	glut_max2_r/activation	glut_max3_r/activation	iliacus_r/activation	psoas_r/activation	quad_fem_r/activation	gem_r/activation	peri_r/activation	rect_fem_r/activation	vas_med_r/activation	vas_int_r/activation	vas_lat_r/activation	med_gas_r/activation	lat_gas_r/activation	soleus_r/activation	tib_post_r/activation	flex_dig_r/activation	flex_hal_r/activation	tib_ant_r/activation	per_brev_r/activation	per_long_r/activation	per_tert_r/activation	ext_dig_r/activation	ext_hal_r/activation	ercspn_r/activation	intobl_r/activation	extobl_r/activation	
          0.00000000	         -6.09297273	         -1.78907299	          1.70160673	          0.00000000	          0.89061945	         -0.02114589	        -12.37476796	          0.25893487	         13.53529605	         31.45118427	         -1.13862224	        -15.76260407	        -15.40465785	         -5.37202129	          6.48994360	         -0.97450717	          0.21317844	         -9.60219273	         36.98670077	          0.24687947	         -1.13077095	          3.97441815	         -2.24731194	        -19.46959508	        -14.25187629	         -0.61444550	        -32.92491039	        -13.62940310	          9.46389211	        101.14402535	         27.91204215	          0.25876930	          0.08903596	          0.08644902	          0.34878238	          0.29878317	          0.14965366	          0.12048404	          0.10774666	          0.07306721	          0.14492207	          0.08630885	          0.05000427	          0.05001293	          0.14457887	          0.08652231	          0.05578320	          0.36838848	          0.05005361	          0.08700737	          0.08648320	          0.08642943	          0.08640893	          0.25812257	          0.05000416	          0.08645531	          0.08647813	          0.08647851	          0.14948299	          0.07331938	          0.07264821	          0.05758041	          0.61574916	          0.78620809	          0.15752284	          0.69081274	          0.87769160	          0.78663644	          0.05000122	          0.05000988	          0.05000633	          0.05000619	          0.05000177	          0.05000715	          0.05000052	          0.08644470	          0.05000437	          0.06141876	          0.05003612	          0.05001105	          0.09702183	          0.06770712	          0.05003944	          0.05000115	          0.05000362	          0.05000200	          0.09431656	          0.38763312	          0.23906409	          0.18115021	          0.21147641	          0.07590200	          0.05024377	          0.18033410	          0.29204732	          0.05001342	          0.05002599	          0.05002727	          0.05365815	          0.16501924	          0.19232405	          0.88298848	          0.23759717	          0.05001793	          0.17645211	          0.08645476	          0.08645370	          0.08642275	          0.05055310	          0.05055306	          0.05055373	          0.05055167	          0.05055282	          0.05055325	          0.05055437	          0.05055414	          0.05055363	          0.05055414	          0.05055414	          0.05055412	          0.05776249	          0.10942175	          0.11221319	
          0.04373375	         -5.93477662	         -2.95344030	          2.55137792	          0.06878991	          0.88847283	         -0.01728757	        -14.36476178	         -1.49896364	         11.01953716	         30.82875986	          1.15501045	        -11.36659665	        -19.13008883	        -11.04354436	          1.27831429	         -2.45525663	          2.13761024	        -18.09962237	         39.57918704	          0.22759762	         -0.38388400	          6.04034589	         -3.20707389	        -17.32954517	        -14.23079910	          4.29922639	        -34.79583724	        -13.68410303	         11.90109677	        108.98064975	         25.20230911	          0.42716623	          0.05150079	          0.05000377	          0.55443007	          0.17282628	          0.08656324	          0.09616570	          0.09400116	          0.07276188	          0.08382880	          0.05006433	          0.67822650	          0.42342966	          0.08363565	          0.05008436	          0.05005860	          0.60752588	          0.05007063	          0.05034575	          0.05007057	          0.05002779	          0.05000798	          0.14930609	          0.37954428	          0.05000858	          0.05002915	          0.05002093	          0.08646204	          0.05000278	          0.05000251	          0.05000170	          0.35615252	          0.45475045	          0.10579609	          0.50442344	          0.52953854	          0.46149018	          0.05000554	          0.05000211	          0.05000149	          0.05000655	          0.05000322	          0.05001314	          0.20420498	          0.05000103	          0.13568900	          0.18344988	          0.39078340	          0.05001318	          0.28571013	          0.16588152	          0.05012072	          0.12353180	          0.19313329	          0.14903722	          0.15732664	          0.22420996	          0.17852820	          0.47178492	          0.56926348	          0.45148414	          0.24651195	          0.10430777	          0.16894778	          0.36664386	          0.31349324	          0.35736457	          0.37799493	          0.09544842	          0.11124160	          0.51072602	          0.13743070	          0.05001096	          0.10206088	          0.05001107	          0.05000968	          0.05000560	          0.05057025	          0.05057018	          0.05057060	          0.05056820	          0.05056995	          0.05057028	          0.05057089	          0.05057077	          0.05057061	          0.05057028	          0.05057051	          0.05057044	          0.05000058	          0.09884248	          0.06490501	
          0.08746751	         -5.77381500	         -4.11332589	          2.27538237	          0.13427546	          0.89037417	         -0.01064259	        -10.97582838	         -2.47478169	          8.74249740	         27.90214220	          3.73898046	         -7.98309283	        -32.06490352	        -13.53555829	         -2.70589496	         -2.46860064	          4.63651221	        -25.42540755	         32.22592230	          0.19287100	          0.12469963	          7.75490474	         -3.92886388	        -13.75729203	        -13.98931780	          9.16882540	        -32.11425681	        -13.70587190	         17.06677966	        110.97500899	         17.69851515	          0.24707586	          0.05000780	          0.05001579	          0.32069029	          0.09996975	          0.05008088	          0.05578444	          0.05448638	          0.05755302	          0.05000529	          0.05065848	          0.45969088	          0.63585794	          0.31564086	          0.08653470	          0.05015764	          0.59956174	          0.43787993	          0.06022153	          0.05013879	          0.05021722	          0.08644902	          0.08643706	          0.21953446	          0.14180722	          0.31407330	          0.18384620	          0.05001085	          0.05000265	          0.05000237	          0.05000175	          0.20600053	          0.26303117	          0.06119385	          0.29176181	          0.30629339	          0.26693281	          0.26430340	          0.38825633	          0.16700377	          0.05001910	          0.52262398	          0.18234566	          0.21159932	          0.09652150	          0.07848355	          0.33002633	          0.54803585	          0.64084492	          0.16527360	          0.09599149	          0.12644082	          0.09363197	          0.11895171	          0.10504459	          0.09100275	          0.12968621	          0.10326647	          0.27288712	          0.32928044	          0.26119622	          0.17697899	          0.06033498	          0.09773949	          0.21208256	          0.43960323	          0.37223126	          0.22846814	          0.05520871	          0.06434363	          0.29541962	          0.07955136	          0.05921924	          0.05903328	          0.21639327	          0.23906254	          0.19663744	          0.05056829	          0.05056817	          0.05056858	          0.05056572	          0.05056738	          0.05056796	          0.05056898	          0.05056944	          0.05056928	          0.05056884	          0.05056888	          0.05056863	          0.12750521	          0.05717126	          0.05000254	
          0.13120126	         -5.60111348	         -4.95040811	          1.39680340	          0.19374228	          0.89760951	         -0.00395031	         -4.94077994	         -2.84658892	          6.87033534	         23.74862048	          6.21007241	         -4.53352254	        -45.66679400	        -13.44797874	         -3.80120295	         -0.50920337	          6.87962373	        -30.16817105	         18.92465259	          0.31335613	          0.32716252	          8.98875424	         -4.41202875	         -9.00453255	        -13.65531702	         13.57932789	        -26.73411501	        -13.48837970	         19.34716440	        107.46303126	         10.33611568	          0.14291520	          0.05001810	          0.05001837	          0.26665989	          0.13966003	          0.05026640	          0.08482714	          0.15586735	          0.08616319	          0.12841943	          0.28089723	          0.26666993	          0.36785500	          0.18257517	          0.05008244	          0.05000619	          0.76627079	          0.50123503	          0.31071118	          0.05005103	          0.05001416	          0.05000655	          0.20529228	          0.19690695	          0.14967294	          0.18167431	          0.10634008	          0.05000231	          0.05000084	          0.05000076	          0.05000057	          0.11916218	          0.15214409	          0.05047198	          0.16896336	          0.17717264	          0.15440483	          0.29882789	          0.22457205	          0.09659662	          0.38043234	          0.77453317	          0.65555150	          0.20053895	          0.09508090	          0.05000249	          0.56848217	          0.51452610	          0.42150519	          0.13154187	          0.05607242	          0.07328424	          0.12426836	          0.17454050	          0.12496349	          0.05264703	          0.07501448	          0.05974401	          0.15803137	          0.19054294	          0.20414535	          0.19529280	          0.05000811	          0.05657372	          0.18010712	          0.36978039	          0.28266083	          0.18185655	          0.05000260	          0.05000259	          0.17087535	          0.05003550	          0.05002566	          0.05000234	          0.13348580	          0.21014444	          0.14925529	          0.05056873	          0.05056860	          0.05056875	          0.05056552	          0.05056720	          0.05056806	          0.05056923	          0.05056943	          0.05056918	          0.05056907	          0.05056910	          0.05056888	          0.07725602	          0.05000176	          0.05000269	
